<?xml version="1.0" standalone="no"?>
<!DOCTYPE svg PUBLIC "-//W3C//DTD SVG 20010904//EN"
 "http://www.w3.org/TR/2001/REC-SVG-20010904/DTD/svg10.dtd">
<svg version="1.0" xmlns="http://www.w3.org/2000/svg"
 width="179.000000pt" height="179.000000pt" viewBox="0 0 179.000000 179.000000"
 preserveAspectRatio="xMidYMid meet">
<metadata>
Created by potrace 1.11, written by Peter Selinger 2001-2013
</metadata>
<g transform="translate(0.000000,179.000000) scale(0.100000,-0.100000)"
fill="#000000" stroke="none">
<path d="M563 1771 c-93 -33 -203 -117 -203 -157 0 -14 -12 -48 -26 -77 -15
-29 -40 -95 -57 -147 -16 -52 -37 -111 -47 -130 -39 -79 -47 -225 -20 -370 7
-36 11 -76 10 -90 -1 -14 -3 -62 -4 -107 -1 -75 1 -84 25 -110 15 -15 43 -54
62 -85 35 -55 68 -77 104 -70 23 5 53 -19 53 -41 0 -13 11 -38 25 -57 14 -19
25 -38 25 -43 0 -4 13 -28 30 -52 32 -46 37 -65 19 -65 -8 0 -8 -4 0 -14 8
-10 9 -16 1 -21 -5 -3 -10 -13 -10 -21 0 -11 4 -12 19 -5 24 13 33 4 20 -20
-7 -14 -7 -19 2 -17 7 2 15 -8 19 -22 6 -24 7 -24 27 15 11 22 26 57 32 78 7
20 15 37 17 37 3 0 20 -11 37 -24 82 -63 243 -121 364 -132 60 -6 66 -4 150
41 103 56 169 99 201 132 28 30 53 78 45 87 -4 3 -1 6 5 6 6 0 18 -12 25 -26
13 -25 14 -23 21 51 7 73 6 79 -20 116 -19 27 -28 54 -29 87 -1 26 -5 66 -9
89 -7 40 -5 44 28 74 41 35 69 92 87 176 7 32 16 63 22 70 6 8 -1 26 -21 55
-21 30 -32 59 -35 95 -5 48 -41 133 -57 133 -4 0 -12 18 -19 40 -6 21 -22 52
-34 67 -13 15 -34 46 -47 68 -41 69 -171 239 -211 276 -83 75 -210 110 -278
74 -29 -15 -36 -15 -74 -1 -23 8 -64 18 -92 21 -27 4 -58 11 -69 17 -31 16
-63 16 -113 -1z"/>
</g>
</svg>
